<svg height='300px' width='300px'  fill="#000000" xmlns="http://www.w3.org/2000/svg" xmlns:xlink="http://www.w3.org/1999/xlink" version="1.1" x="0px" y="0px" viewBox="0 0 90 90" enable-background="new 0 0 90 90" xml:space="preserve"><path d="M69.972,68.696c0.184-1.07,0.162-2.076-0.063-3.022c1.403-0.039,2.81-0.104,4.216-0.2h0.015  c2.081-0.176,3.806-1.033,5.175-2.572c1.415-1.585,2.05-3.428,1.906-5.532c-0.111-1.66-0.685-3.105-1.72-4.339  c0.786-0.108,1.318-0.218,1.596-0.325l0.031-0.015c2.194-0.818,3.873-2.233,5.035-4.245l0.016-0.015  c1.278-2.178,1.365-4.537,0.264-7.082v0.017c-1.027-2.588-3.253-4.158-6.679-4.71h0.031c-0.5-0.096-1.053-0.167-1.657-0.218  c0.146-0.229,0.28-0.473,0.402-0.729l0.016-0.031c0.85-1.874,0.947-3.79,0.295-5.748c-0.006-0.012-0.011-0.028-0.017-0.046  c-0.709-1.952-1.959-3.394-3.749-4.323h0.016c-1.561-0.887-3.745-1.202-6.554-0.945V24.6c-2.04,0.166-10.494,2.019-25.364,5.562  c0.042-0.072,0.083-0.145,0.124-0.217v0.016c1.072-1.817,1.893-3.815,2.463-5.997l-0.015,0.016c0.679-2.435,0.44-5.033-0.713-7.792  c-1.34-3.275-3.849-4.681-7.531-4.215h-0.015c-3.546,0.349-5.838,2.699-6.879,7.05c-0.655,2.774-1.306,4.612-1.953,5.516  l-0.014,0.016c-0.717,0.814-1.89,1.682-3.518,2.603c-0.01,0.004-0.021,0.009-0.031,0.015c-2.329,1.27-4.142,3.202-5.438,5.795  v-0.016c-0.393,0.765-0.739,1.549-1.039,2.355c-1.291-0.837-2.417-1.215-3.377-1.13c-3.204-0.127-5.767,1.769-7.685,5.686  l0.015-0.016c-1.351,2.668-2.229,5.627-2.634,8.879v0.016c-0.394,3.283-0.032,6.578,1.084,9.885l0.015,0.016  c1.25,3.898,4.39,5.929,9.42,6.089c0.267,0.009,0.515-0.027,0.744-0.107c4.265,7.504,12.808,9.647,25.626,6.43  c6.458,2.102,13.116,3.481,19.973,4.136h0.015c1.941,0.186,3.708-0.356,5.299-1.627C68.714,72.281,69.664,70.661,69.972,68.696z   M42.609,66.79c-0.406-0.133-0.814-0.142-1.224-0.031c-12.597,3.298-20.276,0.571-23.039-8.181c-0.167-0.563-0.506-0.986-1.023-1.27  c-0.519-0.282-1.062-0.339-1.626-0.172c-0.564,0.166-0.988,0.506-1.271,1.023c-0.283,0.519-0.339,1.061-0.171,1.626  c0.053,0.192,0.11,0.383,0.171,0.574c-2.206-0.321-3.657-1.358-4.354-3.114l0.016,0.016c-0.907-2.68-1.207-5.351-0.899-8.012  c0.338-2.738,1.072-5.233,2.2-7.481l0.016-0.017c1.016-2.076,2.296-3.177,3.843-3.301c0.55,0.106,1.283,0.54,2.2,1.303  c-0.055,0.314-0.1,0.629-0.14,0.944c-0.073,0.585,0.072,1.11,0.434,1.58c0.365,0.465,0.84,0.734,1.425,0.807  c0.585,0.073,1.113-0.071,1.581-0.435c0.464-0.364,0.733-0.839,0.806-1.425c0.278-2.266,0.918-4.373,1.921-6.322v-0.016  c0.887-1.775,2.122-3.103,3.703-3.981l0.031-0.016c2.228-1.257,3.808-2.467,4.741-3.625l0.016-0.016  c1-1.128,1.935-3.541,2.805-7.236c0.528-2.214,1.618-3.48,3.269-3.796h0.016c1.475-0.19,2.492,0.347,3.052,1.612  c0.746,1.784,0.922,3.463,0.526,5.036l-0.016,0.015c-0.462,1.786-1.128,3.423-1.999,4.912v0.016  c-1.07,1.833-1.726,3.455-1.967,4.865c-0.013,0.042-0.023,0.083-0.031,0.124c-0.014,0.08-0.025,0.164-0.031,0.248  c-0.048,0.682-0.027,1.958,0.062,3.829v0.03c0.055,1.47-0.4,3.313-1.363,5.531h-0.015c-0.98,2.169-2.855,3.931-5.625,5.283  c-0.528,0.261-0.89,0.667-1.084,1.224c-0.195,0.556-0.164,1.098,0.093,1.628c0.259,0.529,0.668,0.892,1.224,1.085  c0.553,0.194,1.095,0.164,1.627-0.094c3.842-1.87,6.409-4.343,7.7-7.421h-0.015c1.302-2.974,1.88-5.458,1.735-7.453v-0.03  c-0.032-0.688-0.054-1.282-0.063-1.782c15.939-3.812,24.957-5.811,27.052-5.997v-0.016c1.778-0.156,3.167,0.003,4.168,0.48h0.017  c0.798,0.428,1.361,1.078,1.688,1.953c0.006,0.015,0.011,0.03,0.017,0.045c0.276,0.866,0.229,1.713-0.14,2.541  c-0.005,0.011-0.011,0.022-0.016,0.032c-0.369,0.76-0.947,1.286-1.735,1.581l0.016-0.017c-1.281,0.464-2.573,0.888-3.874,1.271  c-0.039,0.01-0.08,0.021-0.123,0.031c-0.203,0.071-0.767,0.241-1.689,0.512c-0.047,0.007-0.094,0.018-0.14,0.031  c-4.471,1.304-10.436,2.518-17.896,3.641c-0.586,0.086-1.056,0.364-1.409,0.836c-0.35,0.479-0.479,1.011-0.388,1.597  c0.085,0.58,0.364,1.045,0.837,1.396c0.475,0.347,1.002,0.477,1.58,0.387c7.67-1.144,13.811-2.384,18.422-3.719  c4.845-0.787,8.444-0.984,10.799-0.589h0.032c1.699,0.272,2.841,0.996,3.424,2.169v0.015c0.509,1.175,0.493,2.265-0.047,3.271  l0.016-0.017c-0.65,1.119-1.585,1.91-2.805,2.371c-1.56,0.494-11.311,1.166-29.252,2.015c-0.026-0.002-0.052-0.002-0.077,0  c-0.576,0.024-1.062,0.251-1.457,0.682c-0.399,0.432-0.591,0.938-0.573,1.519c0.021,0.584,0.242,1.08,0.666,1.487  c0.422,0.402,0.923,0.599,1.503,0.588c0.026,0,0.052,0,0.078,0c14.42-0.227,22.012-0.36,22.776-0.402h0.03  c0.918-0.065,1.724,0.192,2.417,0.774l0.016,0.015c0.699,0.615,1.081,1.381,1.146,2.295c0.063,0.913-0.211,1.713-0.821,2.401  c-0.61,0.687-1.38,1.068-2.308,1.146c-1.452,0.103-2.903,0.173-4.354,0.217c-1.028,0.019-2.088,0.029-3.176,0.03  c-0.102-0.009-0.205-0.009-0.31,0c-5.249-0.007-11.275-0.373-18.082-1.1c-0.584-0.062-1.105,0.093-1.565,0.465  c-0.461,0.368-0.725,0.845-0.79,1.425c-0.062,0.585,0.093,1.105,0.465,1.564c0.368,0.461,0.844,0.726,1.426,0.791  c6.673,0.714,12.618,1.09,17.833,1.131c0.009,0.015,0.02,0.03,0.031,0.047c0.453,0.649,0.608,1.394,0.465,2.23v0.017  c-0.146,0.887-0.579,1.619-1.302,2.198c-0.677,0.544-1.426,0.788-2.246,0.73C55.475,70.295,48.941,68.909,42.609,66.79z"></path></svg>