<svg height='300px' width='300px'  fill="#000000" xmlns="http://www.w3.org/2000/svg" xmlns:xlink="http://www.w3.org/1999/xlink" version="1.1" x="0px" y="0px" viewBox="0 0 90 90" enable-background="new 0 0 90 90" xml:space="preserve"><path d="M57.615,75.265c2.003-1.734,2.992-3.816,2.967-6.243c0-0.064,0-0.128,0-0.192c2.535-0.347,4.866-1.284,6.996-2.813  l0.02-0.02c3.251-2.404,4.844-5.301,4.778-8.69c-0.003-0.811-0.092-1.602-0.27-2.371c0.296-0.192,0.611-0.398,0.943-0.615  c0.039-0.035,0.078-0.066,0.116-0.097c2.146-1.501,3.22-3.903,3.218-7.208c0.076-1.843-0.572-3.719-1.945-5.626  c0.655-0.378,1.284-0.795,1.888-1.252c0.313-0.22,0.673-0.503,1.079-0.848c0.148-0.128,0.283-0.27,0.405-0.425  c0.028-0.038,0.061-0.083,0.097-0.135c3.188-2.917,4.749-5.816,4.682-8.689c0.167-2.975-1.368-5.859-4.605-8.654l-0.02-0.018  c-5.298-4.744-12.023-5.682-20.176-2.813c-0.181-0.197-0.367-0.396-0.559-0.598v0.02c-4.146-4.325-8.707-6.465-13.682-6.418  c-3.513-0.095-7.509,1.677-11.986,5.319l-0.02,0.02c-2.653,2.049-4.875,5.221-6.667,9.519c-1.081-0.577-2.166-0.84-3.257-0.79  c-3.985-0.157-7.171,2.199-9.559,7.073l0.02-0.02c-1.679,3.345-2.771,7.026-3.275,11.042v0.018  c-0.488,4.083-0.039,8.194,1.349,12.333l0.02,0.02c1.444,4.51,4.92,7.007,10.425,7.496c0.563,1.105,1.296,2.262,2.197,3.469  l0.019,0.02c3.102,4.425,8.317,6.025,15.647,4.798c0.537,0.611,1.154,1.228,1.851,1.851v0.02c3.059,2.744,6.238,4.073,9.539,3.989  h0.038c3.379-0.066,5.942-0.876,7.689-2.429C57.587,75.289,57.601,75.277,57.615,75.265z M50.543,54.608  c0.038,0.022,0.076,0.048,0.115,0.077c0.258,0.153,0.515,0.309,0.771,0.462c1.92,1.156,3.943,1.972,6.069,2.447  c1.55,0.349,3.143,0.522,4.779,0.52c1.664-0.001,3.257-0.226,4.779-0.674c-0.11,1.635-0.978,3.055-2.602,4.259l-0.02,0.02  c-1.819,1.299-3.861,1.948-6.128,1.946c-2.688-0.001-5.194-0.709-7.516-2.119l0.02,0.018c-2.361-1.469-3.575-3.363-3.642-5.685  c-0.001-0.931,0.294-1.624,0.886-2.08h0.039c0.259-0.166,0.548-0.296,0.867-0.386C49.443,53.824,49.971,54.223,50.543,54.608z   M57.942,43.239c0.107,0.032,0.21,0.057,0.309,0.077c0.282,0.051,0.565,0.102,0.848,0.153l-0.135-0.038  c2.104,0.501,4.225,0.681,6.359,0.539h0.019c1.278-0.074,2.557-0.259,3.836-0.559c1.166,1.257,1.795,2.458,1.889,3.603  c-0.002,1.256-0.329,2.212-0.983,2.872l-0.059,0.058c-0.02,0.012-0.038,0.025-0.058,0.039c-0.357,0.23-0.691,0.456-1.002,0.675  h-0.019c-0.353,0.25-0.681,0.476-0.983,0.674c-0.031,0.016-0.063,0.035-0.096,0.058c-0.151,0.059-0.299,0.136-0.443,0.231  c-0.104,0.032-0.207,0.069-0.309,0.115c-1.498,0.709-3.11,1.063-4.837,1.06c-1.24-0.002-2.448-0.137-3.623-0.403  c-1.572-0.348-3.069-0.945-4.49-1.793c-0.256-0.154-0.513-0.309-0.771-0.463c-0.684-0.479-1.262-0.993-1.734-1.541v0.02  c-0.962-1.145-1.443-2.448-1.445-3.913c0.001-0.989,0.335-1.721,1.003-2.196v-0.02c0.86-0.478,1.979-0.715,3.353-0.712  C55.538,42.354,56.662,42.841,57.942,43.239z M74.477,25.395l0.019,0.02c1.763,1.518,2.688,3.034,2.775,4.546  c-0.143,1.585-1.164,3.235-3.064,4.953c-0.087,0.084-0.17,0.175-0.25,0.27c-0.068,0.083-0.133,0.16-0.192,0.232  c-0.176,0.142-0.336,0.263-0.481,0.366c-0.032,0.027-0.064,0.053-0.097,0.077c-1.003,0.771-2.114,1.388-3.334,1.851  c-0.403,0.117-0.814,0.233-1.233,0.346c-1.201,0.333-2.402,0.531-3.604,0.598h-0.019c-1.611,0.114-3.211-0.015-4.799-0.386  c-0.045-0.013-0.091-0.025-0.135-0.038c-0.232-0.043-0.464-0.087-0.694-0.135c-0.23-0.074-0.456-0.15-0.674-0.232  c0.886-0.488,1.656-1.162,2.312-2.023c0.011-0.02,0.023-0.039,0.04-0.057c0.854-1.138,1.407-2.507,1.656-4.104  c0.529,0.22,1.3,0.554,2.313,1.001c0.678,0.301,1.358,0.32,2.043,0.059c0.68-0.267,1.168-0.735,1.464-1.408  c0.302-0.676,0.321-1.356,0.059-2.043c-0.268-0.679-0.736-1.167-1.407-1.463c-2.349-1.043-3.769-1.596-4.259-1.658  c-0.083-0.01-0.167-0.016-0.25-0.02c-0.1-0.009-0.196-0.015-0.289-0.02c-0.014-0.046-0.026-0.092-0.039-0.134  c-0.006-0.03-0.013-0.062-0.02-0.096c-0.284-0.918-0.689-1.843-1.214-2.776C66.429,21.637,70.886,22.394,74.477,25.395z   M27.072,63.896l-0.02-0.02c-2.014-2.718-2.707-4.901-2.082-6.552c0.345-0.65,0.41-1.325,0.193-2.023  c-0.214-0.703-0.644-1.229-1.291-1.579c-0.648-0.345-1.323-0.409-2.023-0.192c-0.702,0.215-1.229,0.646-1.58,1.29  c-0.598,0.962-0.945,2.002-1.04,3.122c-1.983-0.589-3.332-1.782-4.047-3.585l0.019,0.02c-1.128-3.356-1.5-6.689-1.118-10v-0.02  c0.423-3.377,1.336-6.473,2.737-9.289l0.019-0.018c1.264-2.583,2.856-3.952,4.779-4.105c0.47,0.063,0.951,0.281,1.445,0.655  c-0.39,1.352-0.75,2.777-1.079,4.278c-0.154,0.715-0.032,1.384,0.366,2.004c0.394,0.624,0.946,1.015,1.657,1.176  c0.716,0.155,1.384,0.033,2.004-0.366c0.622-0.395,1.014-0.945,1.175-1.658c1.704-7.783,4.267-13.114,7.689-15.994l0.02-0.02  c3.274-2.666,6.159-4.048,8.652-4.143c3.556,0.054,6.831,1.647,9.828,4.78c0.526,0.546,1.003,1.093,1.426,1.638  c0.013,0.018,0.025,0.038,0.038,0.057c0.054,0.075,0.111,0.146,0.174,0.212c1.057,1.347,1.795,2.665,2.216,3.95l-0.02-0.096  c0.126,0.445,0.223,0.888,0.289,1.329c-0.002,0.035-0.002,0.066,0,0.097c0.022,0.241,0.036,0.491,0.039,0.751  c-0.001,1.236-0.271,2.258-0.81,3.063l0.038-0.038c-0.464,0.61-1.119,0.899-1.965,0.867c-0.387,0.005-0.76-0.041-1.118-0.135  l-0.058-0.02h-0.02c-0.794-0.27-1.539-0.759-2.235-1.463h-0.019c-1.712-1.695-2.958-2.91-3.739-3.644  c-0.108-0.253-0.263-0.489-0.462-0.712c-0.456-0.506-1.021-0.795-1.696-0.867c-0.678-0.075-1.294,0.084-1.85,0.482  c-0.551,0.403-0.898,0.937-1.041,1.599c-0.278,0.95-0.13,2.24,0.443,3.874l0.02,0.039c0.283,0.772,0.443,1.337,0.482,1.695  c-0.051,1.656-0.73,3.371-2.043,5.146l-0.02,0.018c-1.237,1.624-2.516,2.57-3.835,2.833c-0.723,0.097-1.307,0.438-1.754,1.021  c-0.451,0.584-0.632,1.239-0.539,1.966c0.097,0.723,0.437,1.307,1.021,1.754c0.584,0.45,1.239,0.631,1.967,0.539  c2.344-0.22,4.559-1.549,6.648-3.988c-0.039,0.348-0.059,0.707-0.059,1.078c0,1.528,0.275,2.96,0.829,4.298  c-0.19,0.108-0.376,0.225-0.56,0.347c-2.209,1.345-3.313,3.521-3.314,6.532c-0.004,0.294,0.002,0.583,0.02,0.867  c-1.691,0.229-3.13,1.089-4.316,2.583l-0.019,0.019c-1.259,1.515-1.888,3.428-1.889,5.743c-0.009,0.578,0.049,1.156,0.173,1.734  C31.877,67.134,28.96,66.157,27.072,63.896z M49.772,72.414c-2.03-0.044-4.002-0.925-5.917-2.641v0.02  c-0.846-0.772-1.52-1.531-2.023-2.273l-0.038-0.059c-0.033-0.049-0.065-0.094-0.097-0.135c-0.465-0.751-0.709-1.496-0.732-2.235  c-0.001-0.963,0.236-1.768,0.714-2.408l0.019-0.02c0.324-0.411,0.723-0.63,1.195-0.655c0.12-0.002,0.217-0.002,0.289,0  c0.043,0.017,0.088,0.036,0.135,0.057c0.151,0.077,0.306,0.141,0.463,0.193c1.007,1.421,2.414,2.693,4.22,3.816l0.02,0.018  c2.225,1.351,4.576,2.231,7.053,2.641c0.061,0.091,0.132,0.18,0.212,0.27l-0.019,0.02c-0.025,0.845-0.385,1.576-1.08,2.196  c-1.02,0.755-2.478,1.153-4.374,1.196H49.772z"></path></svg>