<svg height='300px' width='300px'  fill="#000000" xmlns="http://www.w3.org/2000/svg" xmlns:xlink="http://www.w3.org/1999/xlink" version="1.1" x="0px" y="0px" viewBox="0 0 90 90" enable-background="new 0 0 90 90" xml:space="preserve"><path d="M5.991,53.204c1.322,4.128,4.646,6.277,9.975,6.446c0.168,0.006,0.332-0.005,0.49-0.033c0.457,0.693,0.998,1.36,1.625,2.003  c2.34,2.421,5.09,3.624,8.252,3.608c0.32,0.007,0.83-0.048,1.525-0.163c0.352-0.057,0.576-0.09,0.674-0.099c0.063,0,0.121,0,0.18,0  c0.564,1.052,1.357,2.106,2.379,3.166l0.016,0.016c2.459,2.563,5.133,3.82,8.023,3.773c2.523-0.011,4.732-0.715,6.627-2.116  c2.18-1.603,3.23-3.467,3.151-5.594c0-0.036,0-0.075,0-0.115c2.76-0.092,5.275-0.83,7.547-2.214l0.017-0.018  c3.037-1.905,4.509-4.229,4.413-6.972c0.018-0.947-0.135-1.859-0.46-2.741c2.698,0.506,5.454,0.942,8.269,1.313  c5.816,0.763,9.765,0.981,11.845,0.656c0.011-0.006,0.022-0.012,0.033-0.017c2.698-0.418,4.771-1.922,6.218-4.511l-0.017,0.016  c1.526-2.55,1.494-5.431-0.099-8.646c-1.287-3.163-5.454-5.006-12.501-5.528c-0.082-0.007-0.165-0.012-0.246-0.017  c4.924-1.519,7.921-3.429,8.99-5.725l0.017-0.017c1.72-3.199,1.954-5.775,0.706-7.726c-1.017-1.889-2.542-3.189-4.577-3.905h0.032  c-1.733-0.646-3.706-0.93-5.923-0.853h-0.033c-2.013,0.018-6.038,1.063-12.073,3.132c-4.726,1.618-8.647,3.193-11.764,4.726  c-0.777-1.395-1.861-2.815-3.248-4.265c-3.529-3.685-7.412-5.504-11.648-5.464c-2.996-0.079-6.402,1.426-10.221,4.512  c-2.262,1.756-4.152,4.462-5.678,8.12c-0.92-0.479-1.844-0.698-2.771-0.656c-3.387-0.13-6.111,1.876-8.17,6.021  c-1.4,2.843-2.314,5.972-2.74,9.385C4.388,46.191,4.776,49.691,5.991,53.204z M39.179,61.914h0.018  c1.533,0.803,3.141,1.387,4.822,1.757c0.092,0.188,0.211,0.37,0.361,0.541c-0.078,0.715-0.516,1.365-1.313,1.953  c-1.125,0.829-2.436,1.238-3.938,1.23c-1.697-0.047-3.283-0.84-4.758-2.38L34.356,65c-1.363-1.413-2.08-2.791-2.15-4.136  c0-0.806,0.201-1.489,0.607-2.051l0.016-0.016c0.277-0.334,0.615-0.508,1.018-0.524c0.188-0.001,0.313-0.001,0.377,0  c0.02,0.004,0.035,0.01,0.051,0.017h-0.066c0.256,0.126,0.514,0.203,0.771,0.229C35.927,59.803,37.327,60.934,39.179,61.914z   M11.634,35.322c1.092-2.204,2.459-3.369,4.102-3.496c0.4,0.054,0.811,0.24,1.23,0.558c-0.332,1.15-0.639,2.365-0.92,3.643  c-0.131,0.608-0.027,1.177,0.313,1.706c0.336,0.53,0.807,0.864,1.41,1.001c0.609,0.132,1.18,0.028,1.707-0.311  c0.529-0.336,0.863-0.807,1.002-1.412c1.453-6.635,3.641-11.19,6.561-13.665c2.789-2.252,5.244-3.417,7.367-3.496  c3.025,0.046,5.814,1.402,8.367,4.069v-0.017c1.619,1.693,2.707,3.329,3.264,4.905c0.006,0.017,0.012,0.033,0.018,0.049  c0.17,0.608,0.26,1.215,0.262,1.821c0,1.042-0.225,1.894-0.672,2.56c-0.393,0.508-0.947,0.749-1.658,0.721  c-1.072-0.027-2.051-0.476-2.936-1.344c-1.441-1.428-2.496-2.456-3.166-3.085c-0.09-0.232-0.229-0.452-0.41-0.657  c-0.389-0.431-0.871-0.676-1.443-0.738c-0.578-0.064-1.104,0.073-1.576,0.41c-0.469,0.344-0.764,0.798-0.885,1.362  c-0.24,0.799-0.119,1.904,0.359,3.313c0.014,0.015,0.023,0.032,0.033,0.05c0.242,0.658,0.379,1.139,0.41,1.443  c-0.041,1.41-0.631,2.87-1.771,4.381c-1.049,1.382-2.143,2.19-3.281,2.428c-0.611,0.09-1.105,0.385-1.477,0.886  c-0.381,0.505-0.527,1.069-0.443,1.69c0.09,0.611,0.385,1.104,0.887,1.477c0.506,0.379,1.068,0.527,1.689,0.442  c2.23-0.243,4.309-1.644,6.234-4.2c1.34-1.771,2.182-3.511,2.525-5.217c1.596,1.281,3.346,1.91,5.25,1.887  c2.256-0.022,4.017-0.864,5.283-2.526l0.018-0.033c1.038-1.346,1.559-3.097,1.559-5.25c0.001-0.425-0.021-0.852-0.065-1.279  c3.044-1.542,6.965-3.133,11.763-4.774c5.393-1.855,8.969-2.823,10.729-2.905h0.032c1.578-0.052,2.983,0.145,4.217,0.591h0.033  c0.938,0.334,1.645,0.937,2.115,1.805c0.287,0.842,0.04,1.984-0.737,3.429l0.017-0.015c-1.169,1.757-4.439,3.255-9.811,4.494  l0.017-0.016c-6.342,1.437-12.319,3.027-17.933,4.774c-0.559,0.176-0.985,0.521-1.279,1.033c-0.3,0.512-0.387,1.054-0.263,1.624  c0.134,0.572,0.445,1.025,0.937,1.363c0.481,0.341,1.012,0.472,1.591,0.393c8.668-1.22,15.882-1.629,21.639-1.23  c4.776,0.353,7.696,1.354,8.762,3.002c0.813,1.644,0.891,3.112,0.229,4.414l-0.017,0.016c-0.696,1.262-1.687,2.011-2.969,2.248  l0.032-0.018c-1.856,0.244-5.39,0.025-10.598-0.655c-5.378-0.707-10.54-1.657-15.486-2.854c-0.46-0.151-0.941-0.266-1.445-0.345  c-0.041-0.007-0.078-0.012-0.113-0.017c-0.202-0.021-0.416-0.044-0.641-0.065c-0.62-0.065-1.174,0.099-1.657,0.492  c-0.483,0.396-0.758,0.906-0.819,1.526c-0.065,0.619,0.099,1.172,0.491,1.655c0.398,0.485,0.907,0.758,1.526,0.821  c0.171,0.018,0.335,0.035,0.492,0.05c0.038,0.007,0.076,0.012,0.115,0.017c0.182,0.035,0.362,0.078,0.541,0.131  c0.05,0.022,0.104,0.044,0.164,0.065c0.81,0.281,1.58,0.747,2.313,1.395l0.017,0.017c1.005,0.924,1.529,1.936,1.575,3.035  c-0.095,1.193-0.854,2.237-2.281,3.134l0.018-0.017c-1.725,1.055-3.649,1.579-5.775,1.575c-2.531,0.005-4.873-0.553-7.021-1.674  h0.016c-2.066-1.093-3.154-2.472-3.264-4.134c-0.018-0.626,0.236-1.08,0.754-1.363l-0.016,0.018c0.76-0.372,1.75-0.558,2.969-0.558  c0.422,0.051,1.309,0.335,2.658,0.853c0.016,0.006,0.031,0.013,0.049,0.016c1.311,0.539,2.104,0.894,2.379,1.066  c0.475,0.413,1.021,0.599,1.641,0.558c0.62-0.047,1.134-0.31,1.542-0.786c0.414-0.474,0.599-1.021,0.559-1.641  c-0.05-0.619-0.313-1.133-0.788-1.542c-0.376-0.394-1.602-1.017-3.676-1.87c-0.018-0.005-0.033-0.01-0.049-0.017  c-2.168-0.831-3.605-1.218-4.314-1.165c-2.105-0.002-3.807,0.359-5.102,1.083l-0.018,0.017c-2.055,1.112-3.092,2.879-3.117,5.298  c-1.674,0.073-3.08,0.813-4.215,2.215l-0.018,0.018c-1.006,1.238-1.541,2.753-1.607,4.543c-0.162,0.021-0.348,0.049-0.559,0.082  h-0.016c-0.354,0.06-0.611,0.093-0.771,0.099c-1.912-0.015-3.58-0.759-5.004-2.23c-1.375-1.408-2.113-3.005-2.213-4.79  c-0.031-0.626-0.277-1.149-0.74-1.575c-0.461-0.424-1.004-0.62-1.623-0.591c-0.625,0.029-1.15,0.275-1.574,0.737  s-0.621,1.003-0.592,1.624c0.016,0.379,0.049,0.751,0.098,1.117c-2.232-0.364-3.709-1.453-4.428-3.265  c-0.975-2.833-1.285-5.653-0.938-8.465C9.683,40.375,10.454,37.728,11.634,35.322z"></path></svg>